<svg xmlns="http://www.w3.org/2000/svg" version="1.1" xmlns:xlink="http://www.w3.org/1999/xlink" xmlns:svgjs="http://svgjs.dev/svgjs" width="1500" height="443" viewBox="0 0 1500 443"><g transform="matrix(1,0,0,1,-0.9090909090909918,0.20793426378887148)"><svg viewBox="0 0 396 117" data-background-color="#ffffff" preserveAspectRatio="xMidYMid meet" height="443" width="1500" xmlns="http://www.w3.org/2000/svg" xmlns:xlink="http://www.w3.org/1999/xlink"><g id="tight-bounds" transform="matrix(1,0,0,1,0.2400000000000091,-0.05491717576364863)"><svg viewBox="0 0 395.52 117.1098343515273" height="117.1098343515273" width="395.52"><g><svg viewBox="0 0 395.52 117.1098343515273" height="117.1098343515273" width="395.52"><g><svg viewBox="0 0 395.52 117.1098343515273" height="117.1098343515273" width="395.52"><g id="textblocktransform"><svg viewBox="0 0 395.52 117.1098343515273" height="117.1098343515273" width="395.52" id="textblock"><g><svg viewBox="0 0 395.52 117.1098343515273" height="117.1098343515273" width="395.52"><g transform="matrix(1,0,0,1,0,0)"><svg width="395.52" viewBox="0.9299999999999962 -38.84 293.48 82.86000000000001" height="117.1098343515273" data-palette-color="#000000"><svg></svg><svg></svg><g class="wordmark-text-0" data-fill-palette-color="primary" id="text-0"><path d="M27.54-8.74h3.83v8.74h-21.19v-8.74h3.74v-7.15l-10.23-14.36h-2.76v-8.59h20.8v8.59h-2.2l4.44 6.5 3.5-6.5h-3.54v-8.59h15.55v8.59h-4.4l-7.54 13.04zM53.78 0.44v0c-2.96 0-5.54-0.547-7.74-1.64v0c-2.227-1.073-3.96-2.65-5.2-4.73-1.233-2.087-1.85-4.56-1.85-7.42v0c0-2.853 0.617-5.273 1.85-7.26v0c1.24-2 2.973-3.507 5.2-4.52 2.233-1.02 4.813-1.53 7.74-1.53v0c3.013 0 5.63 0.52 7.85 1.56 2.227 1.04 3.95 2.55 5.17 4.53 1.22 1.98 1.83 4.387 1.83 7.22v0c0 2.86-0.61 5.333-1.83 7.42v0c-1.24 2.08-2.98 3.663-5.22 4.75-2.233 1.08-4.833 1.62-7.8 1.62zM53.78-6.69v0c1.08 0 1.88-0.53 2.4-1.59v0c0.5-1.02 0.75-2.71 0.75-5.07v0c0-2.167-0.247-3.733-0.74-4.7-0.5-0.973-1.303-1.46-2.41-1.46v0c-1.053 0-1.833 0.487-2.34 1.46-0.507 0.967-0.76 2.533-0.76 4.7v0c0 2.307 0.26 3.997 0.78 5.07v0c0.527 1.06 1.3 1.59 2.32 1.59zM83.06 0.44v0c-5.24 0-7.86-3.28-7.86-9.84v0-9.2h-3.15v-6.6l14.84-1.46v17.26c0 0.633 0.237 1.217 0.71 1.75 0.473 0.527 1.027 0.79 1.66 0.79v0c0.733 0 1.307-0.247 1.72-0.74 0.413-0.5 0.62-1.117 0.62-1.85v0-9.15h-2.34v-6.6l14.04-1.46v19.31h3.15v7.35h-14.85v-3.81c-0.86 1.333-2.01 2.377-3.45 3.13-1.44 0.747-3.137 1.12-5.09 1.12zM128.34-7.35v7.35h-18.75v-7.35h3.15v-11.25h-3.15v-6.6l14.85-1.46v4.25c0.52-0.813 1.283-1.543 2.29-2.19 1.013-0.64 2.093-1.143 3.24-1.51 1.147-0.367 2.177-0.55 3.09-0.55v0 10.35c-1.907-0.633-3.48-0.95-4.72-0.95v0c-1.56 0-2.6 0.45-3.12 1.35-0.52 0.907-0.78 2.093-0.78 3.56v0 5z" fill="#000000" fill-rule="nonzero" stroke="none" stroke-width="1" stroke-linecap="butt" stroke-linejoin="miter" stroke-miterlimit="10" stroke-dasharray="" stroke-dashoffset="0" font-family="none" font-weight="none" font-size="none" text-anchor="none" style="mix-blend-mode: normal" data-fill-palette-color="primary" opacity="1"></path><path d="M20.14 44.02v0c-1.333 0-2.473-0.097-3.42-0.29-0.94-0.2-1.813-0.52-2.62-0.96-0.807-0.44-1.667-1.01-2.58-1.71v0l-0.85 2.25h-7.89v-11.89h7.84c0.507 1.367 1.283 2.33 2.33 2.89 1.053 0.567 2.343 0.85 3.87 0.85v0c0.947 0 1.753-0.193 2.42-0.58 0.667-0.38 1-0.887 1-1.52v0c0-0.8-0.343-1.4-1.03-1.8-0.68-0.4-1.64-0.77-2.88-1.11v0c-1.58-0.42-3.007-0.867-4.28-1.34-1.28-0.473-2.423-0.963-3.43-1.47v0c-2.02-1.007-3.647-2.437-4.88-4.29-1.24-1.86-1.86-4.327-1.86-7.4v0c0-2.36 0.513-4.443 1.54-6.25v0c1.007-1.793 2.46-3.19 4.36-4.19 1.893-1 4.127-1.5 6.7-1.5v0c3.14 0 5.62 1 7.44 3v0l1.25-2.29h7.01v11.64h-7.5c-0.7-1.46-1.473-2.477-2.32-3.05-0.847-0.567-2.01-0.85-3.49-0.85v0c-1.12 0-1.99 0.2-2.61 0.6-0.62 0.393-0.93 0.94-0.93 1.64v0c0 0.787 0.447 1.383 1.34 1.79v0c0.88 0.42 2.133 0.81 3.76 1.17v0c2.853 0.647 5.313 1.467 7.38 2.46v0c2.013 0.993 3.627 2.4 4.84 4.22 1.213 1.813 1.82 4.15 1.82 7.01v0c0 2.427-0.503 4.627-1.51 6.6v0c-1.027 1.967-2.48 3.52-4.36 4.66-1.88 1.14-4.033 1.71-6.46 1.71zM48.41 43.75v0c-6.267 0-9.4-3.263-9.4-9.79v0-9.64h-3.9v-7.16h3.9v-5.59l11.7-2.61v8.2h4.69v7.16h-4.69v8.78c0 0.733 0.277 1.347 0.83 1.84 0.553 0.487 1.243 0.73 2.07 0.73v0c0.607 0 1.203-0.05 1.79-0.15v0 6.79c-2.153 0.96-4.483 1.44-6.99 1.44zM70.17 43.75v0c-5.247 0-7.87-3.28-7.87-9.84v0-9.2h-3.14v-6.6l14.84-1.46v17.26c0 0.633 0.237 1.217 0.71 1.75 0.473 0.527 1.027 0.79 1.66 0.79v0c0.733 0 1.307-0.247 1.72-0.74 0.413-0.5 0.62-1.117 0.62-1.85v0-9.15h-2.34v-6.6l14.04-1.46v19.31h3.14v7.35h-14.84v-3.81c-0.86 1.333-2.01 2.377-3.45 3.13-1.44 0.747-3.137 1.12-5.09 1.12zM108.25 43.75v0c-2.36 0-4.403-0.627-6.13-1.88v0c-1.707-1.253-3.003-2.933-3.89-5.04-0.887-2.107-1.33-4.43-1.33-6.97v0c0-2.293 0.457-4.467 1.37-6.52v0c0.907-2.02 2.197-3.64 3.87-4.86 1.667-1.22 3.64-1.83 5.92-1.83v0c1.66 0 3.083 0.27 4.27 0.81 1.187 0.533 2.293 1.33 3.32 2.39v0-6.4h-3.91v-6.64l15.65-1.61v30.76h3.1v7.35h-15.04v-3.15c-0.793 1.073-1.81 1.933-3.05 2.58-1.233 0.64-2.617 0.977-4.15 1.01zM112.16 36.62v0c0.767 0 1.457-0.183 2.07-0.55 0.62-0.367 1.093-0.8 1.42-1.3v0-9.26c-0.373-0.44-0.873-0.833-1.5-1.18-0.627-0.353-1.29-0.53-1.99-0.53v0c-1.273 0-2.307 0.517-3.1 1.55-0.8 1.033-1.2 2.537-1.2 4.51v0c0 2 0.367 3.627 1.1 4.88 0.733 1.253 1.8 1.88 3.2 1.88zM160.99 26.76h6.25v16.55h-32.79v-8.59h4.71v-21.66h-4.71v-8.59h32.79v15.45h-6.25l-2.35-6.86h-6.98v6.35h6.25v6.4h-6.25v8.91h6.98zM202.64 24.71h-3.3l-7.67 18.6h-12.45l-8.15-18.6h-3.59v-7.55h18.75v7.55h-2.71l4.25 12.3 4.71-12.3h-3.1v-7.55h13.26zM220.04 43.75v0c-3.027 0-5.653-0.563-7.88-1.69v0c-2.247-1.107-3.97-2.693-5.17-4.76-1.193-2.067-1.79-4.483-1.79-7.25v0c0-2.733 0.587-5.11 1.76-7.13v0c1.153-2 2.79-3.543 4.91-4.63 2.113-1.093 4.593-1.64 7.44-1.64v0c2.62 0 4.933 0.513 6.94 1.54v0c2 1.04 3.55 2.513 4.65 4.42 1.093 1.9 1.64 4.12 1.64 6.66v0c0 0.88-0.13 1.71-0.39 2.49v0h-15.21c0 1.533 0.58 2.76 1.74 3.68 1.153 0.92 2.543 1.38 4.17 1.38v0c1.24 0 2.6-0.217 4.08-0.65 1.48-0.433 2.97-1.107 4.47-2.02v0l0.41 0.15v6.57c-1.673 0.96-3.393 1.68-5.16 2.16-1.767 0.48-3.97 0.72-6.61 0.72zM216.94 26.76v0 0.71h6.25v-0.52c0-1.153-0.263-2.15-0.79-2.99-0.527-0.84-1.313-1.26-2.36-1.26v0c-0.86 0-1.59 0.43-2.19 1.29-0.607 0.853-0.91 1.777-0.91 2.77zM269.29 26.71v0 9.54h3.39v7.06h-15.11v-16.65c0-0.7-0.223-1.32-0.67-1.86-0.447-0.533-0.99-0.8-1.63-0.8v0c-1.187 0-1.933 0.593-2.24 1.78v0c-0.327 1.22-0.49 2.93-0.49 5.13v0 5.34h0.05v7.06h-15.26v-7.06h3.54v-11.54h-3.54v-6.6l15.21-1.46v3.66c1.12-1.333 2.397-2.277 3.83-2.83 1.433-0.553 3.053-0.83 4.86-0.83v0c5.373 0 8.06 3.353 8.06 10.06zM287.43 43.75v0c-6.267 0-9.4-3.263-9.4-9.79v0-9.64h-3.91v-7.16h3.91v-5.59l11.69-2.61v8.2h4.69v7.16h-4.69v8.78c0 0.733 0.277 1.347 0.83 1.84 0.553 0.487 1.247 0.73 2.08 0.73v0c0.6 0 1.193-0.05 1.78-0.15v0 6.79c-2.147 0.96-4.473 1.44-6.98 1.44z" fill="#87c0cd" fill-rule="nonzero" stroke="none" stroke-width="1" stroke-linecap="butt" stroke-linejoin="miter" stroke-miterlimit="10" stroke-dasharray="" stroke-dashoffset="0" font-family="none" font-weight="none" font-size="none" text-anchor="none" style="mix-blend-mode: normal" data-fill-palette-color="secondary" opacity="1"></path></g></svg></g></svg></g></svg></g></svg></g></svg></g><defs></defs></svg><rect width="395.52" height="117.1098343515273" fill="none" stroke="none" visibility="hidden"></rect></g></svg></g></svg>